<svg width="445" height="45" viewBox="0 0 445 45" fill="none" xmlns="http://www.w3.org/2000/svg">
<path d="M22.952 29.384V21.08H9.368V30.776L12.152 30.92V35H0.536V31.112L2.12 30.968C3.048 30.872 3.512 30.424 3.512 29.624V7.304L0.776 7.16V3.08H12.392V6.968L10.808 7.112C10.296 7.176 9.928 7.32 9.704 7.544C9.48 7.736 9.368 8.12 9.368 8.696V16.136H22.952V7.304L20.216 7.16V3.08H31.832V6.968L30.248 7.112C29.32 7.208 28.856 7.72 28.856 8.648V30.776L31.592 30.92V35H19.976V31.112L21.56 30.968C22.04 30.904 22.392 30.776 22.616 30.584C22.84 30.36 22.952 29.96 22.952 29.384ZM46.8039 10.136C49.2039 10.136 51.1079 10.728 52.5159 11.912C53.9239 13.064 54.6279 14.696 54.6279 16.808C54.6279 18.216 54.3239 19.464 53.7159 20.552C53.1079 21.608 52.3559 22.44 51.4599 23.048C50.5639 23.656 49.4759 24.152 48.1959 24.536C46.0519 25.176 43.6359 25.496 40.9479 25.496C41.0439 27.192 41.5719 28.568 42.5319 29.624C43.4919 30.648 44.9639 31.16 46.9479 31.16C48.9319 31.16 50.9159 30.456 52.8999 29.048L54.7239 32.936C54.0839 33.512 52.9959 34.104 51.4599 34.712C49.9559 35.32 48.2279 35.624 46.2759 35.624C42.3719 35.624 39.5079 34.552 37.6839 32.408C35.8599 30.232 34.9479 27.256 34.9479 23.48C34.9479 19.704 35.9879 16.536 38.0679 13.976C40.1479 11.416 43.0599 10.136 46.8039 10.136ZM44.5959 21.128C45.7799 20.904 46.8679 20.44 47.8599 19.736C48.8519 19 49.3479 18.136 49.3479 17.144C49.3479 15.192 48.3879 14.216 46.4679 14.216C44.6759 14.216 43.2999 14.936 42.3399 16.376C41.3799 17.784 40.8519 19.48 40.7559 21.464C42.1639 21.432 43.4439 21.32 44.5959 21.128ZM57.7179 14.696V10.856H65.8299V13.976C66.6619 12.792 67.7659 11.864 69.1419 11.192C70.5179 10.488 72.0059 10.136 73.6059 10.136C76.0379 10.136 77.9099 10.84 79.2219 12.248C80.5659 13.624 81.2379 15.704 81.2379 18.488V31.016L83.9739 31.16V35H72.5499V31.352L74.1339 31.208C74.6139 31.144 74.9659 31.016 75.1899 30.824C75.4139 30.6 75.5259 30.2 75.5259 29.624V19.736C75.5259 17.976 75.2539 16.68 74.7099 15.848C74.1659 14.984 73.1259 14.552 71.5899 14.552C70.0859 14.552 68.8859 15.032 67.9899 15.992C67.0939 16.952 66.6459 18.088 66.6459 19.4V31.016L69.3819 31.16V35H57.9579V31.352L59.5419 31.208C60.0219 31.144 60.3739 31.016 60.5979 30.824C60.8219 30.6 60.9339 30.2 60.9339 29.624V16.328C60.9339 15.368 60.5339 14.872 59.7339 14.84L57.7179 14.696ZM89.7631 29.624V16.328C89.7631 15.816 89.6671 15.464 89.4751 15.272C89.3151 15.048 89.0111 14.92 88.5631 14.888L86.5471 14.744V10.856H94.6591V14.456C95.2351 13.208 96.1311 12.184 97.3471 11.384C98.5631 10.552 99.9551 10.136 101.523 10.136C103.123 10.136 104.643 10.488 106.083 11.192V18.344L101.619 18.68V16.472C101.619 15.832 101.459 15.432 101.139 15.272C100.787 15.112 100.355 15.032 99.8431 15.032C98.5631 15.032 97.5071 15.496 96.6751 16.424C95.8751 17.32 95.4751 18.472 95.4751 19.88V31.016L99.6511 31.208V35H86.7871V31.352L88.3711 31.208C88.8511 31.144 89.2031 31.016 89.4271 30.824C89.6511 30.6 89.7631 30.2 89.7631 29.624ZM117.647 10.856V31.016L120.383 31.16V35H108.959V31.352L110.543 31.208C111.471 31.112 111.935 30.6 111.935 29.672V16.328C111.935 15.784 111.839 15.416 111.647 15.224C111.487 15.032 111.183 14.936 110.735 14.936L109.055 14.84V10.856H117.647ZM111.599 6.728C110.927 6.056 110.591 5.208 110.591 4.184C110.591 3.16 110.927 2.312 111.599 1.64C112.271 0.935999 113.151 0.584 114.239 0.584C115.327 0.584 116.207 0.935999 116.879 1.64C117.583 2.312 117.935 3.16 117.935 4.184C117.935 5.208 117.583 6.056 116.879 6.728C116.207 7.368 115.327 7.688 114.239 7.688C113.151 7.688 112.271 7.368 111.599 6.728ZM139.194 39.56V32.936C137.658 34.728 135.658 35.624 133.194 35.624C130.73 35.624 128.762 35.016 127.29 33.8C125.85 32.552 124.858 31.096 124.314 29.432C123.77 27.768 123.498 25.944 123.498 23.96C123.498 19.288 124.602 15.816 126.81 13.544C129.05 11.272 132.074 10.136 135.882 10.136C139.018 10.136 141.978 10.728 144.762 11.912V40.952L147.546 41.096V44.936H134.922V41.288L137.754 41.144C138.234 41.112 138.586 40.984 138.81 40.76C139.066 40.536 139.194 40.136 139.194 39.56ZM139.146 27.128V14.888C138.058 14.504 136.794 14.312 135.354 14.312C133.434 14.312 131.962 15.144 130.938 16.808C129.914 18.44 129.402 20.568 129.402 23.192C129.402 27.096 130.186 29.592 131.754 30.68C132.458 31.16 133.434 31.4 134.682 31.4C135.93 31.4 136.986 31.032 137.85 30.296C138.714 29.56 139.146 28.504 139.146 27.128ZM174.102 31.208V35H166.326V31.88C164.566 34.376 161.974 35.624 158.55 35.624C153.59 35.624 151.11 32.856 151.11 27.32V16.232C151.11 15.368 150.71 14.92 149.91 14.888L148.374 14.792V10.856H156.822V26.072C156.822 27.768 157.062 29.048 157.542 29.912C158.022 30.776 159.014 31.208 160.518 31.208C162.022 31.208 163.222 30.744 164.118 29.816C165.046 28.888 165.51 27.768 165.51 26.456V16.328C165.51 15.816 165.414 15.464 165.222 15.272C165.062 15.048 164.758 14.92 164.31 14.888L162.774 14.792V10.856H171.222V29.672C171.222 30.184 171.302 30.536 171.462 30.728C171.622 30.888 171.942 31 172.422 31.064L174.102 31.208ZM189.07 10.136C191.47 10.136 193.374 10.728 194.782 11.912C196.19 13.064 196.894 14.696 196.894 16.808C196.894 18.216 196.59 19.464 195.982 20.552C195.374 21.608 194.622 22.44 193.726 23.048C192.83 23.656 191.742 24.152 190.462 24.536C188.318 25.176 185.902 25.496 183.214 25.496C183.31 27.192 183.838 28.568 184.798 29.624C185.758 30.648 187.23 31.16 189.214 31.16C191.198 31.16 193.182 30.456 195.166 29.048L196.99 32.936C196.35 33.512 195.262 34.104 193.726 34.712C192.222 35.32 190.494 35.624 188.542 35.624C184.638 35.624 181.774 34.552 179.95 32.408C178.126 30.232 177.214 27.256 177.214 23.48C177.214 19.704 178.254 16.536 180.334 13.976C182.414 11.416 185.326 10.136 189.07 10.136ZM186.862 21.128C188.046 20.904 189.134 20.44 190.126 19.736C191.118 19 191.614 18.136 191.614 17.144C191.614 15.192 190.654 14.216 188.734 14.216C186.942 14.216 185.566 14.936 184.606 16.376C183.646 17.784 183.118 19.48 183.022 21.464C184.43 21.432 185.71 21.32 186.862 21.128ZM209.833 35V31.112L211.417 30.968C212.345 30.872 212.809 30.424 212.809 29.624V7.304L210.073 7.16V3.08H223.801C227.385 3.08 230.169 3.928 232.153 5.624C234.169 7.288 235.177 9.8 235.177 13.16C235.177 16.52 234.041 19.144 231.769 21.032C229.497 22.888 226.489 23.816 222.745 23.816H218.665V30.776L223.273 30.92V35H209.833ZM218.665 19.16H222.121C226.793 19.16 229.129 17.256 229.129 13.448C229.129 11.144 228.521 9.624 227.305 8.888C226.121 8.12 224.217 7.736 221.593 7.736H218.665V19.16ZM247.755 35V31.112L249.339 30.968C250.267 30.872 250.731 30.424 250.731 29.624V7.304L247.995 7.16V3.08H261.723C265.307 3.08 268.091 3.928 270.075 5.624C272.091 7.288 273.099 9.8 273.099 13.16C273.099 16.52 271.963 19.144 269.691 21.032C267.419 22.888 264.411 23.816 260.667 23.816H256.587V30.776L261.195 30.92V35H247.755ZM256.587 19.16H260.043C264.715 19.16 267.051 17.256 267.051 13.448C267.051 11.144 266.443 9.624 265.227 8.888C264.043 8.12 262.139 7.736 259.515 7.736H256.587V19.16ZM285.702 31.496C289.19 31.496 290.934 28.68 290.934 23.048C290.934 20.2 290.534 18.04 289.734 16.568C288.966 15.096 287.654 14.36 285.798 14.36C283.974 14.36 282.63 15.064 281.766 16.472C280.902 17.88 280.47 19.8 280.47 22.232C280.47 26.744 281.302 29.576 282.966 30.728C283.702 31.24 284.614 31.496 285.702 31.496ZM274.662 22.904C274.662 20.536 275.014 18.488 275.718 16.76C276.422 15 277.366 13.656 278.55 12.728C280.822 11 283.334 10.136 286.086 10.136C288.006 10.136 289.622 10.456 290.934 11.096C292.278 11.704 293.318 12.424 294.054 13.256C294.822 14.056 295.462 15.24 295.974 16.808C296.518 18.344 296.79 20.168 296.79 22.28C296.79 26.696 295.718 30.04 293.574 32.312C291.43 34.584 288.678 35.72 285.318 35.72C281.99 35.72 279.382 34.648 277.494 32.504C275.606 30.328 274.662 27.128 274.662 22.904ZM312.598 14.504C311.83 14.216 310.902 14.072 309.814 14.072C308.726 14.072 307.846 14.328 307.174 14.84C306.534 15.32 306.214 15.928 306.214 16.664C306.214 17.368 306.326 17.928 306.55 18.344C306.806 18.728 307.19 19.064 307.702 19.352C308.502 19.768 309.462 20.136 310.582 20.456C311.702 20.744 312.534 20.984 313.078 21.176C313.622 21.336 314.294 21.624 315.094 22.04C315.926 22.456 316.55 22.904 316.966 23.384C318.086 24.568 318.646 26.088 318.646 27.944C318.646 30.344 317.766 32.232 316.006 33.608C314.278 34.952 312.07 35.624 309.382 35.624C305.478 35.624 302.534 35.128 300.55 34.136V27.464L304.87 27.128V29.432C304.87 30.84 306.214 31.544 308.902 31.544C311.59 31.544 312.934 30.568 312.934 28.616C312.934 27.912 312.694 27.336 312.214 26.888C311.766 26.44 311.318 26.136 310.87 25.976C310.422 25.816 309.878 25.656 309.238 25.496C308.63 25.336 308.022 25.176 307.414 25.016C306.838 24.856 306.198 24.648 305.493 24.392C304.822 24.104 304.07 23.704 303.238 23.192C301.606 22.136 300.79 20.376 300.79 17.912C300.79 15.416 301.67 13.496 303.43 12.152C305.19 10.808 307.398 10.136 310.054 10.136C312.742 10.136 315.398 10.776 318.022 12.056V17.816L313.702 18.152V16.136C313.702 15.336 313.334 14.792 312.598 14.504ZM334.254 14.504C333.486 14.216 332.558 14.072 331.47 14.072C330.382 14.072 329.502 14.328 328.83 14.84C328.19 15.32 327.87 15.928 327.87 16.664C327.87 17.368 327.982 17.928 328.206 18.344C328.462 18.728 328.846 19.064 329.358 19.352C330.158 19.768 331.118 20.136 332.238 20.456C333.358 20.744 334.19 20.984 334.734 21.176C335.278 21.336 335.95 21.624 336.75 22.04C337.582 22.456 338.206 22.904 338.622 23.384C339.742 24.568 340.302 26.088 340.302 27.944C340.302 30.344 339.422 32.232 337.662 33.608C335.934 34.952 333.726 35.624 331.038 35.624C327.134 35.624 324.19 35.128 322.206 34.136V27.464L326.526 27.128V29.432C326.526 30.84 327.87 31.544 330.558 31.544C333.246 31.544 334.59 30.568 334.59 28.616C334.59 27.912 334.35 27.336 333.87 26.888C333.422 26.44 332.974 26.136 332.526 25.976C332.078 25.816 331.534 25.656 330.894 25.496C330.286 25.336 329.678 25.176 329.07 25.016C328.494 24.856 327.854 24.648 327.15 24.392C326.478 24.104 325.726 23.704 324.894 23.192C323.262 22.136 322.446 20.376 322.446 17.912C322.446 15.416 323.326 13.496 325.086 12.152C326.846 10.808 329.054 10.136 331.71 10.136C334.398 10.136 337.054 10.776 339.678 12.056V17.816L335.358 18.152V16.136C335.358 15.336 334.99 14.792 334.254 14.504ZM355.382 10.136C357.782 10.136 359.686 10.728 361.094 11.912C362.502 13.064 363.206 14.696 363.206 16.808C363.206 18.216 362.902 19.464 362.294 20.552C361.686 21.608 360.934 22.44 360.038 23.048C359.142 23.656 358.054 24.152 356.774 24.536C354.63 25.176 352.214 25.496 349.526 25.496C349.622 27.192 350.15 28.568 351.11 29.624C352.07 30.648 353.542 31.16 355.526 31.16C357.51 31.16 359.494 30.456 361.478 29.048L363.302 32.936C362.662 33.512 361.574 34.104 360.038 34.712C358.534 35.32 356.806 35.624 354.854 35.624C350.95 35.624 348.086 34.552 346.262 32.408C344.438 30.232 343.526 27.256 343.526 23.48C343.526 19.704 344.566 16.536 346.646 13.976C348.726 11.416 351.638 10.136 355.382 10.136ZM353.174 21.128C354.358 20.904 355.446 20.44 356.438 19.736C357.43 19 357.926 18.136 357.926 17.144C357.926 15.192 356.966 14.216 355.046 14.216C353.254 14.216 351.878 14.936 350.918 16.376C349.958 17.784 349.43 19.48 349.334 21.464C350.742 21.432 352.022 21.32 353.174 21.128ZM368.696 33.56V6.008C368.696 5.272 368.296 4.888 367.496 4.856L365.816 4.76V0.775997H374.264V12.152C375.704 10.808 377.64 10.136 380.072 10.136C383.08 10.136 385.464 11.16 387.224 13.208C388.984 15.224 389.864 18.072 389.864 21.752C389.864 31 385.992 35.624 378.248 35.624C376.584 35.624 374.824 35.416 372.968 35C371.144 34.616 369.72 34.136 368.696 33.56ZM374.264 18.008V30.44C375.48 31.08 376.888 31.4 378.488 31.4C382.136 31.4 383.96 28.44 383.96 22.52C383.96 17.112 382.168 14.408 378.584 14.408C377.432 14.408 376.424 14.744 375.56 15.416C374.696 16.088 374.264 16.952 374.264 18.008ZM404.296 31.496C407.784 31.496 409.528 28.68 409.528 23.048C409.528 20.2 409.128 18.04 408.328 16.568C407.56 15.096 406.248 14.36 404.392 14.36C402.568 14.36 401.224 15.064 400.36 16.472C399.496 17.88 399.064 19.8 399.064 22.232C399.064 26.744 399.896 29.576 401.56 30.728C402.296 31.24 403.208 31.496 404.296 31.496ZM393.256 22.904C393.256 20.536 393.608 18.488 394.312 16.76C395.016 15 395.96 13.656 397.144 12.728C399.416 11 401.928 10.136 404.68 10.136C406.6 10.136 408.216 10.456 409.528 11.096C410.872 11.704 411.912 12.424 412.648 13.256C413.416 14.056 414.056 15.24 414.568 16.808C415.112 18.344 415.384 20.168 415.384 22.28C415.384 26.696 414.312 30.04 412.168 32.312C410.024 34.584 407.272 35.72 403.912 35.72C400.584 35.72 397.976 34.648 396.088 32.504C394.2 30.328 393.256 27.128 393.256 22.904ZM418.327 14.696V10.856H426.439V13.976C427.271 12.792 428.375 11.864 429.751 11.192C431.127 10.488 432.615 10.136 434.215 10.136C436.647 10.136 438.519 10.84 439.831 12.248C441.175 13.624 441.847 15.704 441.847 18.488V31.016L444.583 31.16V35H433.159V31.352L434.743 31.208C435.223 31.144 435.575 31.016 435.799 30.824C436.023 30.6 436.135 30.2 436.135 29.624V19.736C436.135 17.976 435.863 16.68 435.319 15.848C434.775 14.984 433.735 14.552 432.199 14.552C430.695 14.552 429.495 15.032 428.599 15.992C427.703 16.952 427.255 18.088 427.255 19.4V31.016L429.991 31.16V35H418.567V31.352L420.151 31.208C420.631 31.144 420.983 31.016 421.207 30.824C421.431 30.6 421.543 30.2 421.543 29.624V16.328C421.543 15.368 421.143 14.872 420.343 14.84L418.327 14.696Z" fill="#141414"/>
</svg>
