<svg width="24" height="22" viewBox="0 0 24 22" fill="none" xmlns="http://www.w3.org/2000/svg">
<g clip-path="url(#clip0_7_373)">
<path d="M12.65 14.131C12.79 13.8064 12.7 13.4366 12.42 13.1841L10.33 11.3264L10.36 11.2994C12.1 9.54993 13.34 7.53895 14.07 5.41073H16.01C16.55 5.41073 17 5.00493 17 4.51796V4.49993C17 4.01296 16.55 3.60716 16.01 3.60716H10V2.70537C10 2.20939 9.55 1.80359 9 1.80359C8.45 1.80359 8 2.20939 8 2.70537V3.60716H1.99C1.45 3.60716 1 4.01296 1 4.49993C1 4.99591 1.45 5.3927 1.99 5.3927H12.17C11.5 7.14216 10.44 8.79243 9 10.2353C8.19 9.4327 7.51 8.55796 6.94 7.63814C6.78 7.37662 6.49 7.2143 6.16 7.2143C5.47 7.2143 5.03 7.89064 5.37 8.43171C6 9.45073 6.77 10.4247 7.67 11.3264L3.3 15.2131C2.9 15.5648 2.9 16.142 3.3 16.4937C3.69 16.8454 4.32 16.8454 4.72 16.4937L9 12.625L11.02 14.4466C11.53 14.9065 12.4 14.7352 12.65 14.131ZM17.5 9.01787C16.9 9.01787 16.36 9.35153 16.15 9.86555L12.48 18.7031C12.24 19.2531 12.7 19.8393 13.35 19.8393C13.74 19.8393 14.09 19.6229 14.23 19.2892L15.12 17.1339H19.87L20.77 19.2892C20.91 19.6139 21.26 19.8393 21.65 19.8393C22.3 19.8393 22.76 19.2531 22.53 18.7031L18.86 9.86555C18.64 9.35153 18.1 9.01787 17.5 9.01787ZM15.88 15.3304L17.5 11.4256L19.12 15.3304H15.88Z" fill="url(#paint0_linear_7_373)"/>
</g>
<defs>
<linearGradient id="paint0_linear_7_373" x1="11.795" y1="1.80359" x2="11.795" y2="19.8393" gradientUnits="userSpaceOnUse">
<stop stop-color="#9C9C9C"/>
<stop offset="1" stop-color="#707070"/>
</linearGradient>
<clipPath id="clip0_7_373">
<rect width="24" height="21.6429" fill="white"/>
</clipPath>
</defs>
</svg>
